<mxfile host="app.diagrams.net" modified="2022-06-25T15:39:30.105Z" agent="5.0 (Windows NT 10.0; Win64; x64) AppleWebKit/537.36 (KHTML, like Gecko) Chrome/102.0.0.0 Safari/537.36" etag="-Rvl-fKnri2vnzOWZWsL" version="20.0.3" type="github">
  <diagram id="YyVtHMCVjJAJdgX77xl3" name="Page-1">
    <mxGraphModel dx="1422" dy="737" grid="1" gridSize="10" guides="1" tooltips="1" connect="1" arrows="1" fold="1" page="1" pageScale="1" pageWidth="827" pageHeight="1169" math="0" shadow="0">
      <root>
        <mxCell id="0" />
        <mxCell id="1" parent="0" />
        <mxCell id="Dba_KshNGZGqnBGReFBX-1" value="SUNAT" style="points=[[0,0],[0.25,0],[0.5,0],[0.75,0],[1,0],[1,0.25],[1,0.5],[1,0.75],[1,1],[0.75,1],[0.5,1],[0.25,1],[0,1],[0,0.75],[0,0.5],[0,0.25]];outlineConnect=0;gradientColor=none;html=1;whiteSpace=wrap;fontSize=12;fontStyle=0;container=1;pointerEvents=0;collapsible=0;recursiveResize=0;shape=mxgraph.aws4.group;grIcon=mxgraph.aws4.group_corporate_data_center;strokeColor=#5A6C86;fillColor=none;verticalAlign=top;align=left;spacingLeft=30;fontColor=#5A6C86;dashed=0;" parent="1" vertex="1">
          <mxGeometry x="190" y="70" width="1150" height="1720" as="geometry" />
        </mxCell>
        <mxCell id="Dba_KshNGZGqnBGReFBX-11" style="edgeStyle=orthogonalEdgeStyle;rounded=0;orthogonalLoop=1;jettySize=auto;html=1;fillColor=#f8cecc;strokeColor=#b85450;strokeWidth=2;" parent="Dba_KshNGZGqnBGReFBX-1" source="605iq-lV5Hz9d19N_AwI-5" edge="1" target="Dba_KshNGZGqnBGReFBX-10">
          <mxGeometry relative="1" as="geometry">
            <mxPoint x="519" y="270" as="targetPoint" />
          </mxGeometry>
        </mxCell>
        <mxCell id="Dba_KshNGZGqnBGReFBX-15" style="edgeStyle=orthogonalEdgeStyle;rounded=0;orthogonalLoop=1;jettySize=auto;html=1;entryX=0;entryY=0.5;entryDx=0;entryDy=0;entryPerimeter=0;fillColor=#f8cecc;strokeColor=#b85450;strokeWidth=2;" parent="Dba_KshNGZGqnBGReFBX-1" source="Dba_KshNGZGqnBGReFBX-10" target="605iq-lV5Hz9d19N_AwI-3" edge="1">
          <mxGeometry relative="1" as="geometry">
            <mxPoint x="659" y="224" as="targetPoint" />
          </mxGeometry>
        </mxCell>
        <mxCell id="605iq-lV5Hz9d19N_AwI-7" style="edgeStyle=orthogonalEdgeStyle;rounded=0;orthogonalLoop=1;jettySize=auto;html=1;entryX=0;entryY=0.5;entryDx=0;entryDy=0;entryPerimeter=0;fillColor=#f8cecc;strokeColor=#b85450;strokeWidth=2;" parent="Dba_KshNGZGqnBGReFBX-1" target="605iq-lV5Hz9d19N_AwI-4" edge="1">
          <mxGeometry relative="1" as="geometry">
            <mxPoint x="538" y="350" as="sourcePoint" />
          </mxGeometry>
        </mxCell>
        <mxCell id="Dba_KshNGZGqnBGReFBX-10" value="Bus de Eventos" style="sketch=0;aspect=fixed;html=1;points=[];align=center;image;fontSize=12;image=img/lib/mscae/Event_Hubs.svg;" parent="Dba_KshNGZGqnBGReFBX-1" vertex="1">
          <mxGeometry x="489" y="325" width="48" height="50" as="geometry" />
        </mxCell>
        <mxCell id="Dba_KshNGZGqnBGReFBX-19" style="edgeStyle=orthogonalEdgeStyle;rounded=0;orthogonalLoop=1;jettySize=auto;html=1;entryX=0;entryY=0.5;entryDx=0;entryDy=0;entryPerimeter=0;fillColor=#dae8fc;strokeColor=#6c8ebf;strokeWidth=2;" parent="Dba_KshNGZGqnBGReFBX-1" source="Dba_KshNGZGqnBGReFBX-16" target="605iq-lV5Hz9d19N_AwI-5" edge="1">
          <mxGeometry relative="1" as="geometry" />
        </mxCell>
        <mxCell id="Dba_KshNGZGqnBGReFBX-16" value="Consulta Cuentas Acumulacion" style="sketch=0;aspect=fixed;html=1;points=[];align=center;image;fontSize=12;image=img/lib/mscae/App_Services.svg;" parent="Dba_KshNGZGqnBGReFBX-1" vertex="1">
          <mxGeometry x="90" y="355" width="50" height="50" as="geometry" />
        </mxCell>
        <mxCell id="605iq-lV5Hz9d19N_AwI-3" value="Cuentas de Control" style="sketch=0;points=[[0,0,0],[0.25,0,0],[0.5,0,0],[0.75,0,0],[1,0,0],[0,1,0],[0.25,1,0],[0.5,1,0],[0.75,1,0],[1,1,0],[0,0.25,0],[0,0.5,0],[0,0.75,0],[1,0.25,0],[1,0.5,0],[1,0.75,0]];outlineConnect=0;fontColor=#232F3E;gradientColor=#4D72F3;gradientDirection=north;fillColor=#3334B9;strokeColor=#ffffff;dashed=0;verticalLabelPosition=bottom;verticalAlign=top;align=center;html=1;fontSize=12;fontStyle=0;aspect=fixed;shape=mxgraph.aws4.resourceIcon;resIcon=mxgraph.aws4.documentdb_with_mongodb_compatibility;" parent="Dba_KshNGZGqnBGReFBX-1" vertex="1">
          <mxGeometry x="680" y="245" width="58" height="58" as="geometry" />
        </mxCell>
        <mxCell id="605iq-lV5Hz9d19N_AwI-4" value="Padrón de Pre-obligados" style="sketch=0;points=[[0,0,0],[0.25,0,0],[0.5,0,0],[0.75,0,0],[1,0,0],[0,1,0],[0.25,1,0],[0.5,1,0],[0.75,1,0],[1,1,0],[0,0.25,0],[0,0.5,0],[0,0.75,0],[1,0.25,0],[1,0.5,0],[1,0.75,0]];outlineConnect=0;fontColor=#232F3E;gradientColor=#4D72F3;gradientDirection=north;fillColor=#3334B9;strokeColor=#ffffff;dashed=0;verticalLabelPosition=bottom;verticalAlign=top;align=center;html=1;fontSize=12;fontStyle=0;aspect=fixed;shape=mxgraph.aws4.resourceIcon;resIcon=mxgraph.aws4.documentdb_with_mongodb_compatibility;" parent="Dba_KshNGZGqnBGReFBX-1" vertex="1">
          <mxGeometry x="680" y="405" width="59" height="59" as="geometry" />
        </mxCell>
        <mxCell id="605iq-lV5Hz9d19N_AwI-5" value="Cuentas de Acumulación&lt;br&gt;Renta PN&lt;br&gt;Renta PJ&lt;br&gt;IGV&lt;br&gt;Saldos de Creditos" style="sketch=0;points=[[0,0,0],[0.25,0,0],[0.5,0,0],[0.75,0,0],[1,0,0],[0,1,0],[0.25,1,0],[0.5,1,0],[0.75,1,0],[1,1,0],[0,0.25,0],[0,0.5,0],[0,0.75,0],[1,0.25,0],[1,0.5,0],[1,0.75,0]];outlineConnect=0;gradientDirection=north;dashed=0;verticalLabelPosition=bottom;verticalAlign=top;align=center;html=1;fontSize=12;fontStyle=0;aspect=fixed;shape=mxgraph.aws4.resourceIcon;resIcon=mxgraph.aws4.documentdb_with_mongodb_compatibility;fillColor=#3334B9;strokeColor=#ffffff;fontColor=#232F3E;gradientColor=#4D72F3;" parent="Dba_KshNGZGqnBGReFBX-1" vertex="1">
          <mxGeometry x="309" y="311" width="54" height="54" as="geometry" />
        </mxCell>
        <mxCell id="605iq-lV5Hz9d19N_AwI-18" style="edgeStyle=orthogonalEdgeStyle;rounded=0;orthogonalLoop=1;jettySize=auto;html=1;strokeWidth=2;fillColor=#f8cecc;strokeColor=#b85450;" parent="Dba_KshNGZGqnBGReFBX-1" source="605iq-lV5Hz9d19N_AwI-8" target="605iq-lV5Hz9d19N_AwI-15" edge="1">
          <mxGeometry relative="1" as="geometry" />
        </mxCell>
        <mxCell id="605iq-lV5Hz9d19N_AwI-8" value="Plataforma Unica" style="sketch=0;aspect=fixed;html=1;points=[];align=center;image;fontSize=12;image=img/lib/mscae/App_Services.svg;" parent="Dba_KshNGZGqnBGReFBX-1" vertex="1">
          <mxGeometry x="50" y="105" width="50" height="50" as="geometry" />
        </mxCell>
        <mxCell id="605iq-lV5Hz9d19N_AwI-13" style="edgeStyle=orthogonalEdgeStyle;rounded=0;orthogonalLoop=1;jettySize=auto;html=1;fillColor=#f8cecc;strokeColor=#b85450;strokeWidth=2;" parent="Dba_KshNGZGqnBGReFBX-1" target="605iq-lV5Hz9d19N_AwI-5" edge="1">
          <mxGeometry relative="1" as="geometry">
            <mxPoint x="383" y="240" as="sourcePoint" />
          </mxGeometry>
        </mxCell>
        <mxCell id="605iq-lV5Hz9d19N_AwI-9" value="Bus de Eventos" style="sketch=0;aspect=fixed;html=1;points=[];align=center;image;fontSize=12;image=img/lib/mscae/Event_Hubs.svg;" parent="Dba_KshNGZGqnBGReFBX-1" vertex="1">
          <mxGeometry x="410" y="105" width="48" height="50" as="geometry" />
        </mxCell>
        <mxCell id="605iq-lV5Hz9d19N_AwI-17" style="edgeStyle=orthogonalEdgeStyle;rounded=0;orthogonalLoop=1;jettySize=auto;html=1;strokeWidth=2;fillColor=#f8cecc;strokeColor=#b85450;" parent="Dba_KshNGZGqnBGReFBX-1" source="605iq-lV5Hz9d19N_AwI-15" target="605iq-lV5Hz9d19N_AwI-9" edge="1">
          <mxGeometry relative="1" as="geometry" />
        </mxCell>
        <mxCell id="605iq-lV5Hz9d19N_AwI-15" value="Declaraciones y Pagos" style="sketch=0;points=[[0,0,0],[0.25,0,0],[0.5,0,0],[0.75,0,0],[1,0,0],[0,1,0],[0.25,1,0],[0.5,1,0],[0.75,1,0],[1,1,0],[0,0.25,0],[0,0.5,0],[0,0.75,0],[1,0.25,0],[1,0.5,0],[1,0.75,0]];outlineConnect=0;fontColor=#232F3E;gradientColor=#4D72F3;gradientDirection=north;fillColor=#3334B9;strokeColor=#ffffff;dashed=0;verticalLabelPosition=bottom;verticalAlign=top;align=center;html=1;fontSize=12;fontStyle=0;aspect=fixed;shape=mxgraph.aws4.resourceIcon;resIcon=mxgraph.aws4.database;" parent="Dba_KshNGZGqnBGReFBX-1" vertex="1">
          <mxGeometry x="164" y="100" width="60" height="60" as="geometry" />
        </mxCell>
        <mxCell id="rfN_ANFpvwZ0smsy0Tpu-8" style="edgeStyle=orthogonalEdgeStyle;rounded=0;orthogonalLoop=1;jettySize=auto;html=1;strokeWidth=2;" edge="1" parent="Dba_KshNGZGqnBGReFBX-1" source="rfN_ANFpvwZ0smsy0Tpu-2" target="rfN_ANFpvwZ0smsy0Tpu-3">
          <mxGeometry relative="1" as="geometry" />
        </mxCell>
        <mxCell id="rfN_ANFpvwZ0smsy0Tpu-11" style="edgeStyle=orthogonalEdgeStyle;rounded=0;orthogonalLoop=1;jettySize=auto;html=1;strokeWidth=2;fillColor=#dae8fc;strokeColor=#6c8ebf;" edge="1" parent="Dba_KshNGZGqnBGReFBX-1" source="rfN_ANFpvwZ0smsy0Tpu-2" target="605iq-lV5Hz9d19N_AwI-4">
          <mxGeometry relative="1" as="geometry">
            <Array as="points">
              <mxPoint x="265" y="575" />
              <mxPoint x="710" y="575" />
            </Array>
          </mxGeometry>
        </mxCell>
        <mxCell id="rfN_ANFpvwZ0smsy0Tpu-12" style="edgeStyle=orthogonalEdgeStyle;rounded=0;orthogonalLoop=1;jettySize=auto;html=1;strokeWidth=2;" edge="1" parent="Dba_KshNGZGqnBGReFBX-1" source="rfN_ANFpvwZ0smsy0Tpu-2" target="rfN_ANFpvwZ0smsy0Tpu-4">
          <mxGeometry relative="1" as="geometry">
            <Array as="points" />
          </mxGeometry>
        </mxCell>
        <mxCell id="rfN_ANFpvwZ0smsy0Tpu-14" style="edgeStyle=orthogonalEdgeStyle;rounded=0;orthogonalLoop=1;jettySize=auto;html=1;entryX=0.5;entryY=1;entryDx=0;entryDy=0;entryPerimeter=0;strokeWidth=2;strokeColor=#6c8ebf;fillColor=#dae8fc;" edge="1" parent="Dba_KshNGZGqnBGReFBX-1" source="rfN_ANFpvwZ0smsy0Tpu-2" target="rfN_ANFpvwZ0smsy0Tpu-13">
          <mxGeometry relative="1" as="geometry">
            <Array as="points">
              <mxPoint x="265" y="575" />
              <mxPoint x="270" y="575" />
            </Array>
          </mxGeometry>
        </mxCell>
        <mxCell id="rfN_ANFpvwZ0smsy0Tpu-2" value="Modulo de &lt;br&gt;Infracciones" style="sketch=0;aspect=fixed;html=1;points=[];align=center;image;fontSize=12;image=img/lib/mscae/App_Services.svg;" vertex="1" parent="Dba_KshNGZGqnBGReFBX-1">
          <mxGeometry x="240" y="600" width="50" height="50" as="geometry" />
        </mxCell>
        <mxCell id="rfN_ANFpvwZ0smsy0Tpu-3" value="Infracciones" style="sketch=0;points=[[0,0,0],[0.25,0,0],[0.5,0,0],[0.75,0,0],[1,0,0],[0,1,0],[0.25,1,0],[0.5,1,0],[0.75,1,0],[1,1,0],[0,0.25,0],[0,0.5,0],[0,0.75,0],[1,0.25,0],[1,0.5,0],[1,0.75,0]];outlineConnect=0;fontColor=#232F3E;gradientColor=#4D72F3;gradientDirection=north;fillColor=#3334B9;strokeColor=#ffffff;dashed=0;verticalLabelPosition=bottom;verticalAlign=top;align=center;html=1;fontSize=12;fontStyle=0;aspect=fixed;shape=mxgraph.aws4.resourceIcon;resIcon=mxgraph.aws4.documentdb_with_mongodb_compatibility;" vertex="1" parent="Dba_KshNGZGqnBGReFBX-1">
          <mxGeometry x="340" y="765" width="58" height="58" as="geometry" />
        </mxCell>
        <mxCell id="rfN_ANFpvwZ0smsy0Tpu-7" style="edgeStyle=orthogonalEdgeStyle;rounded=0;orthogonalLoop=1;jettySize=auto;html=1;strokeWidth=2;" edge="1" parent="Dba_KshNGZGqnBGReFBX-1" source="rfN_ANFpvwZ0smsy0Tpu-4" target="rfN_ANFpvwZ0smsy0Tpu-5">
          <mxGeometry relative="1" as="geometry" />
        </mxCell>
        <mxCell id="rfN_ANFpvwZ0smsy0Tpu-4" value="Bus de Eventos" style="sketch=0;aspect=fixed;html=1;points=[];align=center;image;fontSize=12;image=img/lib/mscae/Event_Hubs.svg;" vertex="1" parent="Dba_KshNGZGqnBGReFBX-1">
          <mxGeometry x="520" y="624" width="48" height="50" as="geometry" />
        </mxCell>
        <mxCell id="rfN_ANFpvwZ0smsy0Tpu-5" value="Infracciones&lt;br&gt;(informix)" style="sketch=0;points=[[0,0,0],[0.25,0,0],[0.5,0,0],[0.75,0,0],[1,0,0],[0,1,0],[0.25,1,0],[0.5,1,0],[0.75,1,0],[1,1,0],[0,0.25,0],[0,0.5,0],[0,0.75,0],[1,0.25,0],[1,0.5,0],[1,0.75,0]];outlineConnect=0;fontColor=#232F3E;gradientColor=#4D72F3;gradientDirection=north;fillColor=#3334B9;strokeColor=#ffffff;dashed=0;verticalLabelPosition=bottom;verticalAlign=top;align=center;html=1;fontSize=12;fontStyle=0;aspect=fixed;shape=mxgraph.aws4.resourceIcon;resIcon=mxgraph.aws4.database;" vertex="1" parent="Dba_KshNGZGqnBGReFBX-1">
          <mxGeometry x="710" y="645" width="60" height="60" as="geometry" />
        </mxCell>
        <mxCell id="rfN_ANFpvwZ0smsy0Tpu-10" style="edgeStyle=orthogonalEdgeStyle;rounded=0;orthogonalLoop=1;jettySize=auto;html=1;strokeWidth=2;" edge="1" parent="Dba_KshNGZGqnBGReFBX-1" source="rfN_ANFpvwZ0smsy0Tpu-9" target="rfN_ANFpvwZ0smsy0Tpu-2">
          <mxGeometry relative="1" as="geometry">
            <Array as="points">
              <mxPoint x="180" y="665" />
              <mxPoint x="180" y="625" />
            </Array>
          </mxGeometry>
        </mxCell>
        <mxCell id="rfN_ANFpvwZ0smsy0Tpu-9" value="Bus de Eventos" style="sketch=0;aspect=fixed;html=1;points=[];align=center;image;fontSize=12;image=img/lib/mscae/Event_Hubs.svg;" vertex="1" parent="Dba_KshNGZGqnBGReFBX-1">
          <mxGeometry x="100" y="645" width="48" height="50" as="geometry" />
        </mxCell>
        <mxCell id="rfN_ANFpvwZ0smsy0Tpu-13" value="Vencimientos" style="sketch=0;points=[[0,0,0],[0.25,0,0],[0.5,0,0],[0.75,0,0],[1,0,0],[0,1,0],[0.25,1,0],[0.5,1,0],[0.75,1,0],[1,1,0],[0,0.25,0],[0,0.5,0],[0,0.75,0],[1,0.25,0],[1,0.5,0],[1,0.75,0]];outlineConnect=0;fontColor=#232F3E;gradientColor=#4D72F3;gradientDirection=north;fillColor=#3334B9;strokeColor=#ffffff;dashed=0;verticalLabelPosition=bottom;verticalAlign=top;align=center;html=1;fontSize=12;fontStyle=0;aspect=fixed;shape=mxgraph.aws4.resourceIcon;resIcon=mxgraph.aws4.documentdb_with_mongodb_compatibility;" vertex="1" parent="Dba_KshNGZGqnBGReFBX-1">
          <mxGeometry x="240" y="455" width="59" height="59" as="geometry" />
        </mxCell>
        <mxCell id="rfN_ANFpvwZ0smsy0Tpu-30" style="edgeStyle=orthogonalEdgeStyle;rounded=0;orthogonalLoop=1;jettySize=auto;html=1;entryX=-0.083;entryY=0.46;entryDx=0;entryDy=0;entryPerimeter=0;strokeWidth=2;fillColor=#f8cecc;strokeColor=#b85450;" edge="1" parent="Dba_KshNGZGqnBGReFBX-1" source="rfN_ANFpvwZ0smsy0Tpu-15" target="rfN_ANFpvwZ0smsy0Tpu-27">
          <mxGeometry relative="1" as="geometry" />
        </mxCell>
        <mxCell id="rfN_ANFpvwZ0smsy0Tpu-15" value="Modulo de Gestión de Solicitudes" style="sketch=0;aspect=fixed;html=1;points=[];align=center;image;fontSize=12;image=img/lib/mscae/App_Services.svg;" vertex="1" parent="Dba_KshNGZGqnBGReFBX-1">
          <mxGeometry x="135" y="1220" width="50" height="50" as="geometry" />
        </mxCell>
        <mxCell id="rfN_ANFpvwZ0smsy0Tpu-16" value="&lt;b style=&quot;mso-bidi-font-weight:normal&quot;&gt;&lt;span lang=&quot;ES&quot;&gt;3. Determinación&lt;br&gt;de Infracciones y Envío de Comunicaciones&lt;/span&gt;&lt;/b&gt;" style="text;whiteSpace=wrap;html=1;" vertex="1" parent="Dba_KshNGZGqnBGReFBX-1">
          <mxGeometry x="33.5" y="545" width="160" height="50" as="geometry" />
        </mxCell>
        <mxCell id="rfN_ANFpvwZ0smsy0Tpu-17" value="&lt;b style=&quot;mso-bidi-font-weight:normal&quot;&gt;&lt;span lang=&quot;ES&quot;&gt;1. Información&lt;br&gt;para Propuesta de Declaración de Impuesto a la Renta Anual de Personas&lt;br&gt;Jurídicas&lt;br&gt;&lt;/span&gt;&lt;/b&gt;&lt;b&gt;&lt;span style=&quot;font-size:9.0pt;font-family:&amp;quot;Arial&amp;quot;,sans-serif;mso-fareast-font-family:&lt;br/&gt;Arial;mso-ansi-language:ES;mso-fareast-language:ES-PE;mso-bidi-language:AR-SA&quot; lang=&quot;ES&quot;&gt;2. Información&lt;br/&gt;para Propuesta de Declaración de Impuesto a la Renta Anual de Personas&lt;br/&gt;Naturales&lt;/span&gt;&lt;/b&gt;&lt;b style=&quot;mso-bidi-font-weight:normal&quot;&gt;&lt;span lang=&quot;ES&quot;&gt;&lt;span style=&quot;mso-spacerun:yes&quot;&gt;&amp;nbsp;&amp;nbsp;&lt;br&gt;&lt;br&gt;&lt;/span&gt;&lt;/span&gt;&lt;/b&gt;" style="text;whiteSpace=wrap;html=1;" vertex="1" parent="Dba_KshNGZGqnBGReFBX-1">
          <mxGeometry x="600" y="25" width="200" height="150" as="geometry" />
        </mxCell>
        <mxCell id="rfN_ANFpvwZ0smsy0Tpu-18" value="(Información para emisión de resoluciones de multa)" style="text;html=1;resizable=0;autosize=1;align=center;verticalAlign=middle;points=[];fillColor=none;strokeColor=none;rounded=0;" vertex="1" parent="Dba_KshNGZGqnBGReFBX-1">
          <mxGeometry x="660" y="745" width="300" height="30" as="geometry" />
        </mxCell>
        <mxCell id="rfN_ANFpvwZ0smsy0Tpu-19" value="&lt;div&gt;&lt;span style=&quot;text-align: center; background-color: rgb(255, 255, 255);&quot;&gt;Segunda Fase&lt;/span&gt;&lt;br style=&quot;text-align: center;&quot;&gt;&lt;span style=&quot;text-align: center; background-color: rgb(255, 255, 255);&quot;&gt;- Declarar cifras y datos falsos&lt;/span&gt;&lt;br style=&quot;text-align: center;&quot;&gt;&lt;span style=&quot;text-align: center; background-color: rgb(255, 255, 255);&quot;&gt;- No pagar dentro de los plazos&lt;/span&gt;&lt;br&gt;&lt;/div&gt;&lt;ul&gt;&lt;li&gt;registro&lt;/li&gt;&lt;li&gt;baja&lt;/li&gt;&lt;li&gt;reproceso&lt;/li&gt;&lt;/ul&gt;" style="rounded=0;whiteSpace=wrap;html=1;align=left;" vertex="1" parent="Dba_KshNGZGqnBGReFBX-1">
          <mxGeometry x="34" y="725" width="180" height="122" as="geometry" />
        </mxCell>
        <mxCell id="rfN_ANFpvwZ0smsy0Tpu-20" value="&lt;span style=&quot;text-align: center; background-color: rgb(255, 255, 255);&quot;&gt;Tercera Fase&lt;br&gt;&lt;/span&gt;&lt;br&gt;Generacion de infracciones por:&lt;br style=&quot;text-align: center;&quot;&gt;&lt;ul&gt;&lt;li&gt;&lt;span style=&quot;text-align: center; background-color: rgb(255, 255, 255);&quot;&gt;Pagos Autoliquidados&lt;/span&gt;&lt;/li&gt;&lt;li&gt;&lt;span style=&quot;text-align: center; background-color: rgb(255, 255, 255);&quot;&gt;Solicitudes de Fraccionamiento&lt;/span&gt;&lt;/li&gt;&lt;li&gt;&lt;span style=&quot;text-align: center; background-color: rgb(255, 255, 255);&quot;&gt;Solicitudes de Compensación&lt;/span&gt;&lt;/li&gt;&lt;li&gt;&lt;span style=&quot;text-align: center; background-color: rgb(255, 255, 255);&quot;&gt;Verificación/Fiscalización&lt;/span&gt;&lt;/li&gt;&lt;li&gt;&lt;span style=&quot;text-align: center; background-color: rgb(255, 255, 255);&quot;&gt;Procesos Masivos (CPE / LE)&lt;/span&gt;&lt;/li&gt;&lt;/ul&gt;&lt;div style=&quot;text-align: center;&quot;&gt;Aplicacion de Gradualidad hasta antes de la resolucion de Multa&lt;/div&gt;" style="rounded=0;whiteSpace=wrap;html=1;align=left;" vertex="1" parent="Dba_KshNGZGqnBGReFBX-1">
          <mxGeometry x="35" y="855" width="230" height="180" as="geometry" />
        </mxCell>
        <mxCell id="rfN_ANFpvwZ0smsy0Tpu-21" value="&lt;b style=&quot;mso-bidi-font-weight:normal&quot;&gt;&lt;span lang=&quot;ES&quot;&gt;4. Automatización&lt;br&gt;y Uniformización de Solicitudes de Procedimientos no Contenciosos&lt;/span&gt;&lt;/b&gt;&lt;span lang=&quot;ES&quot;&gt;&amp;nbsp;&lt;/span&gt;" style="text;whiteSpace=wrap;html=1;" vertex="1" parent="Dba_KshNGZGqnBGReFBX-1">
          <mxGeometry x="40" y="1140" width="280" height="50" as="geometry" />
        </mxCell>
        <mxCell id="rfN_ANFpvwZ0smsy0Tpu-31" style="edgeStyle=orthogonalEdgeStyle;rounded=0;orthogonalLoop=1;jettySize=auto;html=1;entryX=0.021;entryY=0.84;entryDx=0;entryDy=0;entryPerimeter=0;strokeWidth=2;" edge="1" parent="Dba_KshNGZGqnBGReFBX-1" source="rfN_ANFpvwZ0smsy0Tpu-22" target="rfN_ANFpvwZ0smsy0Tpu-27">
          <mxGeometry relative="1" as="geometry">
            <Array as="points">
              <mxPoint x="270" y="1508" />
              <mxPoint x="270" y="1282" />
            </Array>
          </mxGeometry>
        </mxCell>
        <mxCell id="rfN_ANFpvwZ0smsy0Tpu-22" value="Generación de Solicitudes Automáticas" style="sketch=0;outlineConnect=0;fontColor=#232F3E;gradientColor=none;fillColor=#B0084D;strokeColor=none;dashed=0;verticalLabelPosition=bottom;verticalAlign=top;align=center;html=1;fontSize=12;fontStyle=0;aspect=fixed;pointerEvents=1;shape=mxgraph.aws4.event_time_based;" vertex="1" parent="Dba_KshNGZGqnBGReFBX-1">
          <mxGeometry x="131.75" y="1480" width="56.5" height="56.5" as="geometry" />
        </mxCell>
        <mxCell id="rfN_ANFpvwZ0smsy0Tpu-29" style="edgeStyle=orthogonalEdgeStyle;rounded=0;orthogonalLoop=1;jettySize=auto;html=1;entryX=0;entryY=0.75;entryDx=0;entryDy=0;entryPerimeter=0;strokeWidth=2;fillColor=#dae8fc;strokeColor=#6c8ebf;" edge="1" parent="Dba_KshNGZGqnBGReFBX-1" source="rfN_ANFpvwZ0smsy0Tpu-23" target="rfN_ANFpvwZ0smsy0Tpu-26">
          <mxGeometry relative="1" as="geometry">
            <Array as="points">
              <mxPoint x="300" y="1365" />
              <mxPoint x="300" y="1330" />
              <mxPoint x="440" y="1330" />
              <mxPoint x="440" y="1256" />
            </Array>
          </mxGeometry>
        </mxCell>
        <mxCell id="rfN_ANFpvwZ0smsy0Tpu-23" value="Modulo de &lt;br&gt;Modificación de Datos&lt;br&gt;(Consulta de Solicitudes)" style="sketch=0;aspect=fixed;html=1;points=[];align=center;image;fontSize=12;image=img/lib/mscae/App_Services.svg;" vertex="1" parent="Dba_KshNGZGqnBGReFBX-1">
          <mxGeometry x="131.75" y="1340" width="50" height="50" as="geometry" />
        </mxCell>
        <mxCell id="rfN_ANFpvwZ0smsy0Tpu-26" value="Solicitudes&lt;br&gt;NoContenciosos" style="sketch=0;points=[[0,0,0],[0.25,0,0],[0.5,0,0],[0.75,0,0],[1,0,0],[0,1,0],[0.25,1,0],[0.5,1,0],[0.75,1,0],[1,1,0],[0,0.25,0],[0,0.5,0],[0,0.75,0],[1,0.25,0],[1,0.5,0],[1,0.75,0]];outlineConnect=0;fontColor=#232F3E;gradientColor=#4D72F3;gradientDirection=north;fillColor=#3334B9;strokeColor=#ffffff;dashed=0;verticalLabelPosition=bottom;verticalAlign=top;align=center;html=1;fontSize=12;fontStyle=0;aspect=fixed;shape=mxgraph.aws4.resourceIcon;resIcon=mxgraph.aws4.documentdb_with_mongodb_compatibility;" vertex="1" parent="Dba_KshNGZGqnBGReFBX-1">
          <mxGeometry x="500" y="1212" width="58" height="58" as="geometry" />
        </mxCell>
        <mxCell id="rfN_ANFpvwZ0smsy0Tpu-32" style="edgeStyle=orthogonalEdgeStyle;rounded=0;orthogonalLoop=1;jettySize=auto;html=1;entryX=0;entryY=0.5;entryDx=0;entryDy=0;entryPerimeter=0;strokeWidth=2;" edge="1" parent="Dba_KshNGZGqnBGReFBX-1" source="rfN_ANFpvwZ0smsy0Tpu-27" target="rfN_ANFpvwZ0smsy0Tpu-26">
          <mxGeometry relative="1" as="geometry">
            <Array as="points">
              <mxPoint x="420" y="1245" />
            </Array>
          </mxGeometry>
        </mxCell>
        <mxCell id="rfN_ANFpvwZ0smsy0Tpu-36" style="edgeStyle=orthogonalEdgeStyle;rounded=0;orthogonalLoop=1;jettySize=auto;html=1;strokeWidth=2;entryX=0.479;entryY=1.06;entryDx=0;entryDy=0;entryPerimeter=0;" edge="1" parent="Dba_KshNGZGqnBGReFBX-1" source="rfN_ANFpvwZ0smsy0Tpu-15" target="605iq-lV5Hz9d19N_AwI-9">
          <mxGeometry relative="1" as="geometry">
            <Array as="points">
              <mxPoint x="160" y="1200" />
              <mxPoint x="374" y="1200" />
              <mxPoint x="374" y="1070" />
              <mxPoint x="450" y="1070" />
              <mxPoint x="450" y="670" />
              <mxPoint x="420" y="670" />
              <mxPoint x="420" y="270" />
              <mxPoint x="433" y="270" />
            </Array>
          </mxGeometry>
        </mxCell>
        <mxCell id="rfN_ANFpvwZ0smsy0Tpu-27" value="Bus de Eventos" style="sketch=0;aspect=fixed;html=1;points=[];align=center;image;fontSize=12;image=img/lib/mscae/Event_Hubs.svg;" vertex="1" parent="Dba_KshNGZGqnBGReFBX-1">
          <mxGeometry x="350" y="1240" width="48" height="50" as="geometry" />
        </mxCell>
        <mxCell id="rfN_ANFpvwZ0smsy0Tpu-35" value="&lt;div&gt;&lt;span style=&quot;text-align: center; background-color: rgb(255, 255, 255);&quot;&gt;Primera Fase&lt;/span&gt;&lt;br style=&quot;text-align: center;&quot;&gt;&lt;span style=&quot;text-align: center; background-color: rgb(255, 255, 255);&quot;&gt;- Modificación de Datos (parte y oficio) Virtual. y Automático&amp;nbsp;(oficio)&lt;/span&gt;&lt;/div&gt;&lt;div&gt;&lt;span style=&quot;text-align: center; background-color: rgb(255, 255, 255);&quot;&gt;Segunda Fase&lt;/span&gt;&lt;/div&gt;&lt;div&gt;&lt;span style=&quot;text-align: center; background-color: rgb(255, 255, 255);&quot;&gt;- Reconocimiento de Pago con error (parte y oficio) virtual y Automático&amp;nbsp;(oficio)&amp;nbsp;&lt;/span&gt;&lt;/div&gt;&lt;div&gt;&lt;span style=&quot;text-align: center; background-color: rgb(255, 255, 255);&quot;&gt;Tercera Fase&lt;/span&gt;&lt;/div&gt;&lt;div&gt;&lt;span style=&quot;text-align: center; background-color: rgb(255, 255, 255);&quot;&gt;- Compensaciones&amp;nbsp;&lt;/span&gt;&lt;/div&gt;&lt;span style=&quot;text-align: center; background-color: rgb(255, 255, 255);&quot;&gt;&amp;nbsp;(parte y oficio) virtual y Automático&amp;nbsp;(oficio) y generar cuentas de acumulación&lt;br&gt;Cuarta Fase&lt;br&gt;- Reimputación de boletas SPOT&amp;nbsp;&lt;/span&gt;&lt;span style=&quot;text-align: center; background-color: rgb(255, 255, 255);&quot;&gt;&amp;nbsp;(parte y oficio) virtual y (oficio) Automático y generar cuentas de acumulación&lt;br&gt;&lt;/span&gt;Quinta Fase&lt;br&gt;- Devoluciones de Pagos Indebidos y en Exceso&amp;nbsp;&lt;span style=&quot;text-align: center; background-color: rgb(255, 255, 255);&quot;&gt;(parte y oficio) virtual y (oficio) Automático y generar cuentas de acumulación&lt;/span&gt;&lt;br style=&quot;text-align: center;&quot;&gt;&lt;span style=&quot;text-align: center; background-color: rgb(255, 255, 255);&quot;&gt;&lt;br&gt;&lt;/span&gt;" style="rounded=0;whiteSpace=wrap;html=1;align=left;" vertex="1" parent="Dba_KshNGZGqnBGReFBX-1">
          <mxGeometry x="309" y="1340" width="331" height="270" as="geometry" />
        </mxCell>
        <mxCell id="rfN_ANFpvwZ0smsy0Tpu-37" value="&lt;div&gt;&lt;span style=&quot;text-align: center; background-color: rgb(255, 255, 255);&quot;&gt;Saldos de créditos para:&lt;/span&gt;&lt;/div&gt;&lt;div&gt;&lt;span style=&quot;text-align: center; background-color: rgb(255, 255, 255);&quot;&gt;Compensación&lt;/span&gt;&lt;/div&gt;&lt;div&gt;&lt;span style=&quot;text-align: center; background-color: rgb(255, 255, 255);&quot;&gt;Reimputación&lt;/span&gt;&lt;/div&gt;&lt;div&gt;&lt;span style=&quot;text-align: center; background-color: rgb(255, 255, 255);&quot;&gt;Devolución&lt;/span&gt;&lt;/div&gt;&lt;div&gt;&lt;span style=&quot;text-align: center; background-color: rgb(255, 255, 255);&quot;&gt;&lt;br&gt;&lt;/span&gt;&lt;/div&gt;" style="rounded=0;whiteSpace=wrap;html=1;align=left;" vertex="1" parent="Dba_KshNGZGqnBGReFBX-1">
          <mxGeometry x="470" y="1050" width="150" height="80" as="geometry" />
        </mxCell>
        <mxCell id="rfN_ANFpvwZ0smsy0Tpu-38" value="&lt;b style=&quot;mso-bidi-font-weight:normal&quot;&gt;&lt;span lang=&quot;ES&quot;&gt;5. Información&lt;br&gt;para propuesta de Declaración Jurada del IGV – Formulario 621&lt;/span&gt;&lt;/b&gt;" style="text;whiteSpace=wrap;html=1;" vertex="1" parent="Dba_KshNGZGqnBGReFBX-1">
          <mxGeometry x="820" y="25" width="310" height="80" as="geometry" />
        </mxCell>
        <mxCell id="rfN_ANFpvwZ0smsy0Tpu-42" style="edgeStyle=orthogonalEdgeStyle;rounded=0;orthogonalLoop=1;jettySize=auto;html=1;strokeWidth=2;fillColor=#e1d5e7;strokeColor=#9673a6;" edge="1" parent="Dba_KshNGZGqnBGReFBX-1" source="rfN_ANFpvwZ0smsy0Tpu-41" target="605iq-lV5Hz9d19N_AwI-9">
          <mxGeometry relative="1" as="geometry">
            <Array as="points">
              <mxPoint x="434" y="50" />
            </Array>
          </mxGeometry>
        </mxCell>
        <mxCell id="rfN_ANFpvwZ0smsy0Tpu-41" value="Otros eventos que afecten los importes" style="sketch=0;outlineConnect=0;fontColor=#232F3E;gradientColor=none;fillColor=#B0084D;strokeColor=none;dashed=0;verticalLabelPosition=bottom;verticalAlign=top;align=center;html=1;fontSize=12;fontStyle=0;aspect=fixed;pointerEvents=1;shape=mxgraph.aws4.event_event_based;" vertex="1" parent="Dba_KshNGZGqnBGReFBX-1">
          <mxGeometry x="482" y="10" width="55" height="55" as="geometry" />
        </mxCell>
        <mxCell id="rfN_ANFpvwZ0smsy0Tpu-43" value="&lt;b style=&quot;mso-bidi-font-weight:normal&quot;&gt;&lt;span lang=&quot;ES&quot;&gt;6. Liquidación&lt;br&gt;Centralizada de Tributos&lt;/span&gt;&lt;/b&gt;" style="text;whiteSpace=wrap;html=1;" vertex="1" parent="Dba_KshNGZGqnBGReFBX-1">
          <mxGeometry x="637" y="815" width="170" height="50" as="geometry" />
        </mxCell>
        <mxCell id="rfN_ANFpvwZ0smsy0Tpu-44" value="&lt;div&gt;&lt;span style=&quot;background-color: rgb(255, 255, 255);&quot;&gt;Renta PN&lt;/span&gt;&lt;/div&gt;&lt;div&gt;&lt;span style=&quot;background-color: rgb(255, 255, 255);&quot;&gt;Renta PJ&lt;/span&gt;&lt;/div&gt;&lt;div&gt;&lt;span style=&quot;background-color: rgb(255, 255, 255);&quot;&gt;IGV&lt;/span&gt;&lt;/div&gt;" style="rounded=0;whiteSpace=wrap;html=1;align=left;" vertex="1" parent="Dba_KshNGZGqnBGReFBX-1">
          <mxGeometry x="265" y="105" width="60" height="50" as="geometry" />
        </mxCell>
        <mxCell id="rfN_ANFpvwZ0smsy0Tpu-45" value="Gestión Cuentas Acumulación" style="sketch=0;aspect=fixed;html=1;points=[];align=center;image;fontSize=12;image=img/lib/mscae/App_Services.svg;" vertex="1" parent="Dba_KshNGZGqnBGReFBX-1">
          <mxGeometry x="370" y="210" width="50" height="50" as="geometry" />
        </mxCell>
        <mxCell id="rfN_ANFpvwZ0smsy0Tpu-46" value="Determinación de Omisos" style="sketch=0;aspect=fixed;html=1;points=[];align=center;image;fontSize=12;image=img/lib/mscae/App_Services.svg;" vertex="1" parent="Dba_KshNGZGqnBGReFBX-1">
          <mxGeometry x="920" y="414" width="50" height="50" as="geometry" />
        </mxCell>
        <mxCell id="Dba_KshNGZGqnBGReFBX-17" style="edgeStyle=orthogonalEdgeStyle;rounded=0;orthogonalLoop=1;jettySize=auto;html=1;entryX=0.02;entryY=0.5;entryDx=0;entryDy=0;entryPerimeter=0;fillColor=#dae8fc;strokeColor=#6c8ebf;strokeWidth=2;" parent="1" source="Dba_KshNGZGqnBGReFBX-4" target="Dba_KshNGZGqnBGReFBX-16" edge="1">
          <mxGeometry relative="1" as="geometry">
            <Array as="points">
              <mxPoint x="160" y="260" />
              <mxPoint x="160" y="285" />
              <mxPoint x="220" y="285" />
              <mxPoint x="220" y="365" />
            </Array>
          </mxGeometry>
        </mxCell>
        <mxCell id="605iq-lV5Hz9d19N_AwI-19" style="edgeStyle=orthogonalEdgeStyle;rounded=0;orthogonalLoop=1;jettySize=auto;html=1;strokeWidth=2;fillColor=#f8cecc;strokeColor=#b85450;" parent="1" source="Dba_KshNGZGqnBGReFBX-4" target="605iq-lV5Hz9d19N_AwI-8" edge="1">
          <mxGeometry relative="1" as="geometry">
            <Array as="points">
              <mxPoint x="160" y="259" />
              <mxPoint x="160" y="200" />
            </Array>
          </mxGeometry>
        </mxCell>
        <mxCell id="rfN_ANFpvwZ0smsy0Tpu-25" style="edgeStyle=orthogonalEdgeStyle;rounded=0;orthogonalLoop=1;jettySize=auto;html=1;strokeWidth=2;fillColor=#f8cecc;strokeColor=#b85450;" edge="1" parent="1" source="Dba_KshNGZGqnBGReFBX-4" target="rfN_ANFpvwZ0smsy0Tpu-15">
          <mxGeometry relative="1" as="geometry">
            <Array as="points">
              <mxPoint x="150" y="259" />
              <mxPoint x="150" y="1165" />
            </Array>
          </mxGeometry>
        </mxCell>
        <mxCell id="Dba_KshNGZGqnBGReFBX-4" value="Contribuyentes&lt;br&gt;PN/PJ" style="sketch=0;outlineConnect=0;fontColor=#232F3E;gradientColor=none;fillColor=#232F3D;strokeColor=none;dashed=0;verticalLabelPosition=bottom;verticalAlign=top;align=center;html=1;fontSize=12;fontStyle=0;aspect=fixed;pointerEvents=1;shape=mxgraph.aws4.users;" parent="1" vertex="1">
          <mxGeometry x="30" y="220" width="78" height="78" as="geometry" />
        </mxCell>
        <mxCell id="Dba_KshNGZGqnBGReFBX-18" style="edgeStyle=orthogonalEdgeStyle;rounded=0;orthogonalLoop=1;jettySize=auto;html=1;fillColor=#dae8fc;strokeColor=#6c8ebf;strokeWidth=2;" parent="1" target="Dba_KshNGZGqnBGReFBX-16" edge="1">
          <mxGeometry relative="1" as="geometry">
            <mxPoint x="108" y="924" as="sourcePoint" />
            <Array as="points">
              <mxPoint x="170" y="924" />
              <mxPoint x="170" y="450" />
            </Array>
          </mxGeometry>
        </mxCell>
        <mxCell id="rfN_ANFpvwZ0smsy0Tpu-24" style="edgeStyle=orthogonalEdgeStyle;rounded=0;orthogonalLoop=1;jettySize=auto;html=1;strokeWidth=2;strokeColor=#6c8ebf;fillColor=#dae8fc;" edge="1" parent="1" source="Dba_KshNGZGqnBGReFBX-5" target="rfN_ANFpvwZ0smsy0Tpu-23">
          <mxGeometry relative="1" as="geometry">
            <Array as="points">
              <mxPoint x="170" y="839" />
              <mxPoint x="170" y="1285" />
            </Array>
          </mxGeometry>
        </mxCell>
        <mxCell id="Dba_KshNGZGqnBGReFBX-5" value="Funcionarios" style="sketch=0;outlineConnect=0;fontColor=#232F3E;gradientColor=none;fillColor=#232F3D;strokeColor=none;dashed=0;verticalLabelPosition=bottom;verticalAlign=top;align=center;html=1;fontSize=12;fontStyle=0;aspect=fixed;pointerEvents=1;shape=mxgraph.aws4.users;" parent="1" vertex="1">
          <mxGeometry x="30" y="800" width="78" height="78" as="geometry" />
        </mxCell>
      </root>
    </mxGraphModel>
  </diagram>
</mxfile>
